<svg width="14" height="14" viewBox="0 0 14 14" fill="none" xmlns="http://www.w3.org/2000/svg">
<g clip-path="url(#clip0_179832_3580)">
<rect width="14" height="14" fill="white" fill-opacity="0.01"/>
<path d="M7.46887 1.37585H6.53137C6.44804 1.37585 6.40637 1.41752 6.40637 1.50085V6.4071H1.75049C1.66715 6.4071 1.62549 6.44877 1.62549 6.5321V7.4696C1.62549 7.55294 1.66715 7.5946 1.75049 7.5946H6.40637V12.5009C6.40637 12.5842 6.44804 12.6259 6.53137 12.6259H7.46887C7.55221 12.6259 7.59387 12.5842 7.59387 12.5009V7.5946H12.2505C12.3338 7.5946 12.3755 7.55294 12.3755 7.4696V6.5321C12.3755 6.44877 12.3338 6.4071 12.2505 6.4071H7.59387V1.50085C7.59387 1.41752 7.55221 1.37585 7.46887 1.37585Z" fill="#434343"/>
</g>
<defs>
<clipPath id="clip0_179832_3580">
<rect width="14" height="14" fill="white"/>
</clipPath>
</defs>
</svg>
